<svg id="visual" viewBox="0 0 900 700" width="500" height="450" xmlns="http://www.w3.org/2000/svg" xmlns:xlink="http://www.w3.org/1999/xlink" version="1.1"><rect x="0" y="0" width="900" height="450" fill="#180933"></rect><path d="M0 324L10 325.2C20 326.3 40 328.7 60 327.8C80 327 100 323 120 326.5C140 330 160 341 180 345.8C200 350.7 220 349.3 240 347.7C260 346 280 344 300 338.2C320 332.3 340 322.7 360 320.2C380 317.7 400 322.3 420 325.3C440 328.3 460 329.7 480 332.3C500 335 520 339 540 340.7C560 342.3 580 341.7 600 341.8C620 342 640 343 660 337C680 331 700 318 720 313.5C740 309 760 313 780 320C800 327 820 337 840 336C860 335 880 323 890 317L900 311L900 451L890 451C880 451 860 451 840 451C820 451 800 451 780 451C760 451 740 451 720 451C700 451 680 451 660 451C640 451 620 451 600 451C580 451 560 451 540 451C520 451 500 451 480 451C460 451 440 451 420 451C400 451 380 451 360 451C340 451 320 451 300 451C280 451 260 451 240 451C220 451 200 451 180 451C160 451 140 451 120 451C100 451 80 451 60 451C40 451 20 451 10 451L0 451Z" fill="#180933"></path><path d="M0 338L10 337.5C20 337 40 336 60 341.5C80 347 100 359 120 360.5C140 362 160 353 180 350.2C200 347.3 220 350.7 240 349.2C260 347.7 280 341.3 300 343.2C320 345 340 355 360 359.2C380 363.3 400 361.7 420 359.3C440 357 460 354 480 351.2C500 348.3 520 345.7 540 348.7C560 351.7 580 360.3 600 363.7C620 367 640 365 660 364C680 363 700 363 720 358.8C740 354.7 760 346.3 780 343.2C800 340 820 342 840 344.3C860 346.7 880 349.3 890 350.7L900 352L900 451L890 451C880 451 860 451 840 451C820 451 800 451 780 451C760 451 740 451 720 451C700 451 680 451 660 451C640 451 620 451 600 451C580 451 560 451 540 451C520 451 500 451 480 451C460 451 440 451 420 451C400 451 380 451 360 451C340 451 320 451 300 451C280 451 260 451 240 451C220 451 200 451 180 451C160 451 140 451 120 451C100 451 80 451 60 451C40 451 20 451 10 451L0 451Z" fill="#160729"></path><path d="M0 373L10 372.3C20 371.7 40 370.3 60 371.2C80 372 100 375 120 378C140 381 160 384 180 385.2C200 386.3 220 385.7 240 383.5C260 381.3 280 377.7 300 373.5C320 369.3 340 364.7 360 362.8C380 361 400 362 420 364.7C440 367.3 460 371.7 480 373.5C500 375.3 520 374.7 540 375.5C560 376.3 580 378.7 600 381.2C620 383.7 640 386.3 660 387.5C680 388.7 700 388.3 720 384.8C740 381.3 760 374.7 780 374C800 373.3 820 378.7 840 381C860 383.3 880 382.7 890 382.3L900 382L900 451L890 451C880 451 860 451 840 451C820 451 800 451 780 451C760 451 740 451 720 451C700 451 680 451 660 451C640 451 620 451 600 451C580 451 560 451 540 451C520 451 500 451 480 451C460 451 440 451 420 451C400 451 380 451 360 451C340 451 320 451 300 451C280 451 260 451 240 451C220 451 200 451 180 451C160 451 140 451 120 451C100 451 80 451 60 451C40 451 20 451 10 451L0 451Z" fill="#12051f"></path><path d="M0 399L10 398.8C20 398.7 40 398.3 60 397.3C80 396.3 100 394.7 120 393C140 391.3 160 389.7 180 388.8C200 388 220 388 240 387.2C260 386.3 280 384.7 300 384.3C320 384 340 385 360 387.8C380 390.7 400 395.3 420 397C440 398.7 460 397.3 480 398.2C500 399 520 402 540 399.7C560 397.3 580 389.7 600 389C620 388.3 640 394.7 660 397.7C680 400.7 700 400.3 720 398.7C740 397 760 394 780 391.8C800 389.7 820 388.3 840 388.8C860 389.3 880 391.7 890 392.8L900 394L900 451L890 451C880 451 860 451 840 451C820 451 800 451 780 451C760 451 740 451 720 451C700 451 680 451 660 451C640 451 620 451 600 451C580 451 560 451 540 451C520 451 500 451 480 451C460 451 440 451 420 451C400 451 380 451 360 451C340 451 320 451 300 451C280 451 260 451 240 451C220 451 200 451 180 451C160 451 140 451 120 451C100 451 80 451 60 451C40 451 20 451 10 451L0 451Z" fill="#0b0315"></path><path d="M0 416L10 414.8C20 413.7 40 411.3 60 411.2C80 411 100 413 120 413.2C140 413.3 160 411.7 180 411.2C200 410.7 220 411.3 240 413.8C260 416.3 280 420.7 300 420.3C320 420 340 415 360 416C380 417 400 424 420 424.5C440 425 460 419 480 415.7C500 412.3 520 411.7 540 412C560 412.3 580 413.7 600 416.7C620 419.7 640 424.3 660 426.2C680 428 700 427 720 425.5C740 424 760 422 780 419.5C800 417 820 414 840 415.2C860 416.3 880 421.7 890 424.3L900 427L900 451L890 451C880 451 860 451 840 451C820 451 800 451 780 451C760 451 740 451 720 451C700 451 680 451 660 451C640 451 620 451 600 451C580 451 560 451 540 451C520 451 500 451 480 451C460 451 440 451 420 451C400 451 380 451 360 451C340 451 320 451 300 451C280 451 260 451 240 451C220 451 200 451 180 451C160 451 140 451 120 451C100 451 80 451 60 451C40 451 20 451 10 451L0 451Z" fill="#020104"></path></svg>