<svg id="visual" viewBox="0 0 900 120" width="900" height="450" xmlns="http://www.w3.org/2000/svg" xmlns:xlink="http://www.w3.org/1999/xlink" version="1.1"><path d="M0 374L21.5 381.3C43 388.7 86 403.3 128.8 407C171.7 410.7 214.3 403.3 257.2 400C300 396.7 343 397.3 385.8 399.5C428.7 401.7 471.3 405.3 514.2 402.8C557 400.3 600 391.7 642.8 386.3C685.7 381 728.3 379 771.2 383.8C814 388.7 857 400.3 878.5 406.2L900 412L900 601L878.5 601C857 601 814 601 771.2 601C728.3 601 685.7 601 642.8 601C600 601 557 601 514.2 601C471.3 601 428.7 601 385.8 601C343 601 300 601 257.2 601C214.3 601 171.7 601 128.8 601C86 601 43 601 21.5 601L0 601Z" fill="#020104"></path><path d="M0 437L21.5 430.3C43 423.7 86 410.3 128.8 412.2C171.7 414 214.3 431 257.2 431.3C300 431.7 343 415.3 385.8 416.8C428.7 418.3 471.3 437.7 514.2 439C557 440.3 600 423.7 642.8 417.2C685.7 410.7 728.3 414.3 771.2 424.8C814 435.3 857 452.7 878.5 461.3L900 470L900 601L878.5 601C857 601 814 601 771.2 601C728.3 601 685.7 601 642.8 601C600 601 557 601 514.2 601C471.3 601 428.7 601 385.8 601C343 601 300 601 257.2 601C214.3 601 171.7 601 128.8 601C86 601 43 601 21.5 601L0 601Z" fill="#1b1322"></path><path d="M0 454L21.5 459.5C43 465 86 476 128.8 473.2C171.7 470.3 214.3 453.7 257.2 445.7C300 437.7 343 438.3 385.8 442.5C428.7 446.7 471.3 454.3 514.2 463.5C557 472.7 600 483.3 642.8 479.3C685.7 475.3 728.3 456.7 771.2 459.5C814 462.3 857 486.7 878.5 498.8L900 511L900 601L878.5 601C857 601 814 601 771.2 601C728.3 601 685.7 601 642.8 601C600 601 557 601 514.2 601C471.3 601 428.7 601 385.8 601C343 601 300 601 257.2 601C214.3 601 171.7 601 128.8 601C86 601 43 601 21.5 601L0 601Z" fill="#321c39"></path><path d="M0 504L21.5 506.5C43 509 86 514 128.8 512.5C171.7 511 214.3 503 257.2 501.7C300 500.3 343 505.7 385.8 506.3C428.7 507 471.3 503 514.2 507C557 511 600 523 642.8 530.2C685.7 537.3 728.3 539.7 771.2 537C814 534.3 857 526.7 878.5 522.8L900 519L900 601L878.5 601C857 601 814 601 771.2 601C728.3 601 685.7 601 642.8 601C600 601 557 601 514.2 601C471.3 601 428.7 601 385.8 601C343 601 300 601 257.2 601C214.3 601 171.7 601 128.8 601C86 601 43 601 21.5 601L0 601Z" fill="#4f224e"></path><path d="M0 544L21.5 544.5C43 545 86 546 128.8 544.8C171.7 543.7 214.3 540.3 257.2 544.2C300 548 343 559 385.8 563.3C428.7 567.7 471.3 565.3 514.2 559.2C557 553 600 543 642.8 538.3C685.7 533.7 728.3 534.3 771.2 537.3C814 540.3 857 545.7 878.5 548.3L900 551L900 601L878.5 601C857 601 814 601 771.2 601C728.3 601 685.7 601 642.8 601C600 601 557 601 514.2 601C471.3 601 428.7 601 385.8 601C343 601 300 601 257.2 601C214.3 601 171.7 601 128.8 601C86 601 43 601 21.5 601L0 601Z" fill="#70255f"></path></svg>