<svg id="visual" viewBox="0 0 900 70" width="500" height="450" xmlns="http://www.w3.org/2000/svg" version="1.1"><path d="M0 132L13.7 129C27.3 126 54.7 120 82 108C109.3 96 136.7 78 163.8 75.7C191 73.3 218 86.7 245.2 90.3C272.3 94 299.7 88 327 85.8C354.3 83.7 381.7 85.3 409 91.3C436.3 97.3 463.7 107.7 491 109.2C518.3 110.7 545.7 103.3 573 107.8C600.3 112.3 627.7 128.7 654.8 122.7C682 116.7 709 88.3 736.2 82.3C763.3 76.3 790.7 92.7 818 97.2C845.3 101.7 872.7 94.3 886.3 90.7L900 87L900 0L886.3 0C872.7 0 845.3 0 818 0C790.7 0 763.3 0 736.2 0C709 0 682 0 654.8 0C627.7 0 600.3 0 573 0C545.7 0 518.3 0 491 0C463.7 0 436.3 0 409 0C381.7 0 354.3 0 327 0C299.7 0 272.3 0 245.2 0C218 0 191 0 163.8 0C136.7 0 109.3 0 82 0C54.7 0 27.3 0 13.7 0L0 0Z" fill="#020104"></path><path d="M0 150L13.7 146.2C27.3 142.3 54.7 134.7 82 121.8C109.3 109 136.7 91 163.8 92.5C191 94 218 115 245.2 120.3C272.3 125.7 299.7 115.3 327 112.3C354.3 109.3 381.7 113.7 409 121.8C436.3 130 463.7 142 491 143.5C518.3 145 545.7 136 573 138.3C600.3 140.7 627.7 154.3 654.8 145.3C682 136.3 709 104.7 736.2 97.8C763.3 91 790.7 109 818 115C845.3 121 872.7 115 886.3 112L900 109L900 85L886.3 88.7C872.7 92.3 845.3 99.7 818 95.2C790.7 90.7 763.3 74.3 736.2 80.3C709 86.3 682 114.7 654.8 120.7C627.7 126.7 600.3 110.3 573 105.8C545.7 101.3 518.3 108.7 491 107.2C463.7 105.7 436.3 95.3 409 89.3C381.7 83.3 354.3 81.7 327 83.8C299.7 86 272.3 92 245.2 88.3C218 84.7 191 71.3 163.8 73.7C136.7 76 109.3 94 82 106C54.7 118 27.3 124 13.7 127L0 130Z" fill="#0d0417"></path><path d="M0 168L13.7 165.7C27.3 163.3 54.7 158.7 82 145.2C109.3 131.7 136.7 109.3 163.8 111.7C191 114 218 141 245.2 146.2C272.3 151.3 299.7 134.7 327 130.2C354.3 125.7 381.7 133.3 409 143.8C436.3 154.3 463.7 167.7 491 167.7C518.3 167.7 545.7 154.3 573 154.3C600.3 154.3 627.7 167.7 654.8 161.7C682 155.7 709 130.3 736.2 126.7C763.3 123 790.7 141 818 145.5C845.3 150 872.7 141 886.3 136.5L900 132L900 107L886.3 110C872.7 113 845.3 119 818 113C790.7 107 763.3 89 736.2 95.8C709 102.7 682 134.3 654.8 143.3C627.7 152.3 600.3 138.7 573 136.3C545.7 134 518.3 143 491 141.5C463.7 140 436.3 128 409 119.8C381.7 111.7 354.3 107.3 327 110.3C299.7 113.3 272.3 123.7 245.2 118.3C218 113 191 92 163.8 90.5C136.7 89 109.3 107 82 119.8C54.7 132.7 27.3 140.3 13.7 144.2L0 148Z" fill="#140624"></path><path d="M0 262L13.7 257.5C27.3 253 54.7 244 82 227.5C109.3 211 136.7 187 163.8 184.8C191 182.7 218 202.3 245.2 208.3C272.3 214.3 299.7 206.7 327 199.2C354.3 191.7 381.7 184.3 409 189.7C436.3 195 463.7 213 491 222C518.3 231 545.7 231 573 230.2C600.3 229.3 627.7 227.7 654.8 217.8C682 208 709 190 736.2 193C763.3 196 790.7 220 818 220.8C845.3 221.7 872.7 199.3 886.3 188.2L900 177L900 130L886.3 134.5C872.7 139 845.3 148 818 143.5C790.7 139 763.3 121 736.2 124.7C709 128.3 682 153.7 654.8 159.7C627.7 165.7 600.3 152.3 573 152.3C545.7 152.3 518.3 165.7 491 165.7C463.7 165.7 436.3 152.3 409 141.8C381.7 131.3 354.3 123.7 327 128.2C299.7 132.7 272.3 149.3 245.2 144.2C218 139 191 112 163.8 109.7C136.7 107.3 109.3 129.7 82 143.2C54.7 156.7 27.3 161.3 13.7 163.7L0 166Z" fill="#170930"></path><path d="M0 303L13.7 300C27.3 297 54.7 291 82 288.7C109.3 286.3 136.7 287.7 163.8 295.2C191 302.7 218 316.3 245.2 317.8C272.3 319.3 299.7 308.7 327 304.8C354.3 301 381.7 304 409 313.8C436.3 323.7 463.7 340.3 491 341.8C518.3 343.3 545.7 329.7 573 315.3C600.3 301 627.7 286 654.8 280C682 274 709 277 736.2 280.8C763.3 284.7 790.7 289.3 818 290.2C845.3 291 872.7 288 886.3 286.5L900 285L900 175L886.3 186.2C872.7 197.3 845.3 219.7 818 218.8C790.7 218 763.3 194 736.2 191C709 188 682 206 654.8 215.8C627.7 225.7 600.3 227.3 573 228.2C545.7 229 518.3 229 491 220C463.7 211 436.3 193 409 187.7C381.7 182.3 354.3 189.7 327 197.2C299.7 204.7 272.3 212.3 245.2 206.3C218 200.3 191 180.7 163.8 182.8C136.7 185 109.3 209 82 225.5C54.7 242 27.3 251 13.7 255.5L0 260Z" fill="#180933"></path><path d="M0 357L13.7 356.2C27.3 355.3 54.7 353.7 82 350.7C109.3 347.7 136.7 343.3 163.8 347.2C191 351 218 363 245.2 360C272.3 357 299.7 339 327 339C354.3 339 381.7 357 409 366.7C436.3 376.3 463.7 377.7 491 376.2C518.3 374.7 545.7 370.3 573 362.8C600.3 355.3 627.7 344.7 654.8 342.3C682 340 709 346 736.2 343.8C763.3 341.7 790.7 331.3 818 327.7C845.3 324 872.7 327 886.3 328.5L900 330L900 283L886.3 284.5C872.7 286 845.3 289 818 288.2C790.7 287.3 763.3 282.7 736.2 278.8C709 275 682 272 654.8 278C627.7 284 600.3 299 573 313.3C545.7 327.7 518.3 341.3 491 339.8C463.7 338.3 436.3 321.7 409 311.8C381.7 302 354.3 299 327 302.8C299.7 306.7 272.3 317.3 245.2 315.8C218 314.3 191 300.7 163.8 293.2C136.7 285.7 109.3 284.3 82 286.7C54.7 289 27.3 295 13.7 298L0 301Z" fill="#170930"></path><path d="M0 375L13.7 381C27.3 387 54.7 399 82 399.7C109.3 400.3 136.7 389.7 163.8 386.7C191 383.7 218 388.3 245.2 384.7C272.3 381 299.7 369 327 372.7C354.3 376.3 381.7 395.7 409 402.3C436.3 409 463.7 403 491 398.5C518.3 394 545.7 391 573 390.3C600.3 389.7 627.7 391.3 654.8 391.3C682 391.3 709 389.7 736.2 385.2C763.3 380.7 790.7 373.3 818 372.7C845.3 372 872.7 378 886.3 381L900 384L900 328L886.3 326.5C872.7 325 845.3 322 818 325.7C790.7 329.3 763.3 339.7 736.2 341.8C709 344 682 338 654.8 340.3C627.7 342.7 600.3 353.3 573 360.8C545.7 368.3 518.3 372.7 491 374.2C463.7 375.7 436.3 374.3 409 364.7C381.7 355 354.3 337 327 337C299.7 337 272.3 355 245.2 358C218 361 191 349 163.8 345.2C136.7 341.3 109.3 345.7 82 348.7C54.7 351.7 27.3 353.3 13.7 354.2L0 355Z" fill="#140624"></path><path d="M0 420L13.7 421.5C27.3 423 54.7 426 82 427.5C109.3 429 136.7 429 163.8 428.2C191 427.3 218 425.7 245.2 421.8C272.3 418 299.7 412 327 413.5C354.3 415 381.7 424 409 429.3C436.3 434.7 463.7 436.3 491 435.7C518.3 435 545.7 432 573 431.2C600.3 430.3 627.7 431.7 654.8 432.3C682 433 709 433 736.2 429.3C763.3 425.7 790.7 418.3 818 417.7C845.3 417 872.7 423 886.3 426L900 429L900 382L886.3 379C872.7 376 845.3 370 818 370.7C790.7 371.3 763.3 378.7 736.2 383.2C709 387.7 682 389.3 654.8 389.3C627.7 389.3 600.3 387.7 573 388.3C545.7 389 518.3 392 491 396.5C463.7 401 436.3 407 409 400.3C381.7 393.7 354.3 374.3 327 370.7C299.7 367 272.3 379 245.2 382.7C218 386.3 191 381.7 163.8 384.7C136.7 387.7 109.3 398.3 82 397.7C54.7 397 27.3 385 13.7 379L0 373Z" fill="#0d0417"></path><path d="M0 451L13.7 451C27.3 451 54.7 451 82 451C109.3 451 136.7 451 163.8 451C191 451 218 451 245.2 451C272.3 451 299.7 451 327 451C354.3 451 381.7 451 409 451C436.3 451 463.7 451 491 451C518.3 451 545.7 451 573 451C600.3 451 627.7 451 654.8 451C682 451 709 451 736.2 451C763.3 451 790.7 451 818 451C845.3 451 872.7 451 886.3 451L900 451L900 427L886.3 424C872.7 421 845.3 415 818 415.7C790.7 416.3 763.3 423.7 736.2 427.3C709 431 682 431 654.8 430.3C627.7 429.7 600.3 428.3 573 429.2C545.7 430 518.3 433 491 433.7C463.7 434.3 436.3 432.7 409 427.3C381.7 422 354.3 413 327 411.5C299.7 410 272.3 416 245.2 419.8C218 423.7 191 425.3 163.8 426.2C136.7 427 109.3 427 82 425.5C54.7 424 27.3 421 13.7 419.5L0 418Z" fill="#020104"></path></svg>