<svg version="1.1" id="Layer_1" xmlns="http://www.w3.org/2000/svg" xmlns:xlink="http://www.w3.org/1999/xlink" x="0px" y="0px"
	 width="100%" viewBox="0 0 2515 440" enable-background="new 0 0 2515 440" xml:space="preserve">
<path fill="#000000" opacity="1.000000" stroke="none" 
	d="
M1854.000000,441.000000 
	C1236.000000,441.000000 618.500000,441.000000 1.000000,441.000000 
	C1.000000,294.333344 1.000000,147.666672 1.000000,1.000000 
	C839.333313,1.000000 1677.666626,1.000000 2516.000000,1.000000 
	C2516.000000,147.666672 2516.000000,294.333344 2516.000000,441.000000 
	C2295.500000,441.000000 2075.000000,441.000000 1854.000000,441.000000 
M471.969818,244.086624 
	C471.979736,229.754944 472.014038,215.423187 471.960388,201.091751 
	C471.955231,199.716080 471.402588,198.342468 470.619324,196.238525 
	C468.634491,196.159027 466.649811,196.013138 464.664825,196.009888 
	C431.782410,195.956253 398.899994,195.920532 366.002930,194.958557 
	C366.002930,187.704681 366.002930,180.450806 366.002930,172.848419 
	C401.685547,172.848419 436.617096,172.848419 471.675842,172.848419 
	C471.675842,155.426041 471.675842,138.376511 471.675842,121.379944 
	C415.305267,121.379944 359.259338,121.379944 303.257507,121.379944 
	C303.257507,188.020432 303.257507,254.280640 303.257507,320.684998 
	C359.561371,320.684998 415.606873,320.684998 471.622192,320.684998 
	C471.622192,303.316772 471.622192,286.266235 471.622192,268.850830 
	C436.315430,268.850830 401.383820,268.850830 366.020264,268.850830 
	C366.020264,261.031342 366.020264,253.573929 366.950531,246.018372 
	C400.262054,246.012253 433.573578,246.020111 466.884979,245.958267 
	C468.535217,245.955200 470.184357,245.344864 471.969818,244.086624 
M513.500000,321.000000 
	C534.823792,321.000000 556.147766,320.948517 577.471313,321.018097 
	C591.729309,321.064636 605.390686,318.365143 618.674805,313.169434 
	C635.847046,306.452942 649.409729,295.820770 658.956848,279.737762 
	C668.345642,263.921539 672.017517,246.679688 672.797180,228.800598 
	C673.247009,218.483994 671.956665,208.050964 670.942078,197.720184 
	C669.275696,180.752670 663.277344,165.058838 652.958313,151.728745 
	C637.032532,131.155731 615.075745,121.351685 589.221558,121.086319 
	C555.073792,120.735825 520.919739,121.000015 486.768402,120.999977 
	C484.988800,120.999969 483.209198,120.999969 481.306030,120.999969 
	C481.306030,187.904663 481.306030,254.268005 481.306030,321.000000 
	C491.904266,321.000000 502.202118,321.000000 513.500000,321.000000 
M150.500000,121.000000 
	C140.747375,121.000000 130.994751,121.000000 121.414993,121.000000 
	C121.414993,138.764374 121.414993,155.808182 121.414993,173.210678 
	C139.755310,173.210678 157.683136,173.210678 176.123535,173.210678 
	C176.123535,222.608749 176.123535,271.641754 176.123535,320.627563 
	C197.356140,320.627563 218.066437,320.627563 239.292053,320.627563 
	C239.292053,271.223724 239.292053,222.190720 239.292053,172.807709 
	C258.073425,172.807709 276.336670,172.807709 294.669373,172.807709 
	C294.669373,155.404419 294.669373,138.358810 294.669373,121.000000 
	C246.726425,121.000000 199.113205,121.000000 150.500000,121.000000 
M2253.000000,284.500000 
	C2253.000000,269.171967 2252.838135,253.841187 2253.097168,238.517517 
	C2253.175781,233.872726 2253.713623,228.993607 2255.274902,224.667099 
	C2258.379150,216.065170 2264.754395,210.846313 2273.934326,208.926163 
	C2291.427246,205.267075 2304.171875,214.417755 2305.714111,232.129120 
	C2306.596191,242.254547 2305.126953,252.567261 2305.040771,262.798370 
	C2304.893066,280.291046 2304.979492,297.785919 2305.011719,315.279785 
	C2305.022217,320.992462 2306.036621,321.992157 2311.479248,321.997253 
	C2321.642334,322.006775 2331.805664,321.970795 2341.968506,322.014496 
	C2345.938965,322.031586 2348.134033,320.291718 2347.989258,316.202606 
	C2346.803711,282.738068 2350.407471,249.188110 2346.050049,215.772156 
	C2344.622070,204.823380 2340.243408,195.267014 2332.751221,187.436646 
	C2325.035645,179.372818 2315.178955,175.357590 2304.007324,173.863403 
	C2287.982666,171.720062 2273.660645,174.549896 2262.136230,186.499985 
	C2258.374023,190.401276 2255.405273,195.067459 2252.000000,199.479218 
	C2252.000000,176.883377 2251.989258,154.391922 2252.015137,131.900528 
	C2252.018066,129.277420 2252.249512,126.906067 2248.350586,126.950615 
	C2236.376953,127.087440 2224.400879,127.000427 2211.896973,127.000427 
	C2211.583008,130.263412 2211.040527,133.290466 2211.037354,136.318069 
	C2210.984863,186.633865 2211.000000,236.949738 2211.000000,287.265594 
	C2211.000000,297.095520 2211.042236,306.925690 2210.975098,316.755157 
	C2210.953857,319.859894 2211.894531,321.979340 2215.355713,321.988342 
	C2226.518555,322.017456 2237.681641,322.033661 2248.843994,321.974243 
	C2251.669189,321.959229 2253.130371,320.755951 2253.071777,317.487610 
	C2252.880127,306.828094 2253.000000,296.162964 2253.000000,284.500000 
M1823.063965,309.583130 
	C1823.654175,309.844391 1824.349609,309.982727 1824.819214,310.384827 
	C1836.691162,320.552673 1851.164307,323.655151 1866.065186,324.812775 
	C1872.120483,325.283264 1878.355469,323.808228 1884.477173,322.984222 
	C1901.963379,320.630371 1916.186401,312.377960 1926.924316,298.463898 
	C1933.851807,289.487488 1938.183105,279.221191 1940.001343,267.966278 
	C1941.568481,258.264801 1941.927734,248.638977 1941.247192,238.717255 
	C1939.972900,220.139877 1932.872803,204.473969 1919.955200,191.674332 
	C1907.103271,178.939728 1890.613770,173.876648 1872.856934,173.077667 
	C1862.594604,172.615891 1852.702026,174.519363 1842.796021,177.788239 
	C1825.806152,183.394623 1814.297119,194.780762 1806.120117,209.901550 
	C1800.865356,219.618225 1799.168701,230.417618 1797.747437,241.414627 
	C1796.151123,253.766693 1798.389160,265.460602 1801.651123,276.920227 
	C1805.246094,289.549652 1812.602783,300.288025 1823.063965,309.583130 
M2022.701416,288.000000 
	C2014.196777,287.904388 2005.521973,282.033875 2003.081299,273.926941 
	C2001.515381,268.725006 2000.196777,263.218658 2000.134888,257.833038 
	C1999.835449,231.837173 1999.939697,205.835678 2000.068848,179.837006 
	C2000.087036,176.186646 1999.090332,174.841064 1995.283081,174.923386 
	C1984.954956,175.146744 1974.613647,175.186584 1964.288086,174.909058 
	C1960.101440,174.796539 1958.887085,176.056671 1958.909546,180.266617 
	C1959.076172,211.598206 1959.047485,242.931244 1958.971436,274.263550 
	C1958.948364,283.750397 1961.834229,292.567596 1966.357666,300.491791 
	C1976.601562,318.437286 2000.338867,327.998444 2020.379639,322.796204 
	C2035.079224,318.980469 2046.474243,310.794495 2053.000000,294.992401 
	C2053.000000,303.133850 2053.286621,309.775635 2052.900635,316.378082 
	C2052.637207,320.884613 2054.487305,322.098114 2058.553711,322.043091 
	C2068.385010,321.910156 2078.224609,321.814117 2088.050049,322.088928 
	C2092.139648,322.203339 2093.085449,320.759674 2093.075439,316.895691 
	C2092.958008,271.230560 2092.948975,225.564835 2093.086182,179.899796 
	C2093.098633,175.763702 2091.656250,174.835205 2087.846191,174.923630 
	C2078.018311,175.151688 2068.181641,174.988876 2058.348633,175.004044 
	C2052.124268,175.013641 2051.004883,176.152557 2051.002930,182.483566 
	C2050.995605,209.649506 2051.013672,236.815460 2050.968262,263.981323 
	C2050.965332,265.735382 2050.582275,267.502930 2050.249512,269.239929 
	C2048.261475,279.613770 2036.930054,289.202728 2022.701416,288.000000 
M1656.523926,213.017685 
	C1662.865356,224.356400 1669.241821,235.675903 1675.517944,247.050674 
	C1676.729004,249.245346 1678.407471,251.654358 1678.413086,253.968002 
	C1678.462524,274.395325 1678.158081,294.823273 1678.016968,315.251465 
	C1677.980347,320.537994 1679.410034,321.966217 1684.579224,321.987610 
	C1694.741699,322.029602 1704.906982,321.863708 1715.065674,322.061584 
	C1719.656738,322.151031 1721.101562,320.253967 1721.065186,315.833588 
	C1720.911133,297.175751 1721.255859,278.510376 1720.850830,259.860046 
	C1720.721924,253.927292 1722.660767,249.039459 1725.363770,244.238312 
	C1736.240112,224.919769 1747.217407,205.657913 1758.203735,186.401550 
	C1766.315918,172.183029 1774.559814,158.039429 1782.621338,143.792480 
	C1785.645508,138.448135 1788.320679,132.906296 1791.391357,127.000000 
	C1776.980713,127.000000 1763.315186,127.315125 1749.677734,126.834373 
	C1744.696167,126.658768 1742.741333,129.076736 1741.053955,132.739548 
	C1740.723511,133.456558 1740.788208,134.366180 1740.421875,135.054504 
	C1729.352539,155.850632 1718.266479,176.637848 1707.145142,197.406158 
	C1704.851807,201.688614 1702.408325,205.890610 1699.684937,210.753098 
	C1692.117676,196.508469 1685.047485,183.218674 1677.995361,169.919327 
	C1671.009399,156.744736 1664.149658,143.500656 1656.930908,130.455109 
	C1656.006836,128.785156 1653.288452,127.226807 1651.343384,127.153496 
	C1642.193359,126.808662 1633.023193,127.000000 1623.860229,127.000000 
	C1618.950562,127.000000 1614.040771,127.000000 1607.795532,127.000000 
	C1624.262207,156.160126 1640.150024,184.295181 1656.523926,213.017685 
M1249.431763,217.947800 
	C1250.580688,219.147278 1251.915039,220.218094 1252.850220,221.565887 
	C1263.883545,237.465652 1274.753418,253.479630 1285.877197,269.315460 
	C1295.911377,283.599976 1306.733276,297.362183 1316.168579,312.023499 
	C1321.058350,319.621918 1326.258301,323.859650 1335.376587,322.004089 
	C1335.536621,321.971558 1335.710571,321.985291 1335.875488,322.002197 
	C1340.362061,322.461823 1342.127197,320.923309 1342.113037,315.955200 
	C1341.939331,254.961304 1342.000122,193.966751 1342.000000,132.972351 
	C1342.000000,131.972443 1342.317261,130.816544 1341.921875,130.010147 
	C1341.365356,128.874680 1340.320190,127.189011 1339.414307,127.144112 
	C1334.001709,126.875793 1328.569092,127.011238 1323.000000,127.011238 
	C1323.000000,129.449493 1323.000000,131.269363 1323.000000,133.089218 
	C1323.000000,181.584763 1323.017822,230.080322 1322.952393,278.575775 
	C1322.948730,281.285400 1322.257446,283.994110 1321.676025,288.236328 
	C1313.156738,276.252838 1305.536743,265.615082 1298.001953,254.917404 
	C1285.079468,236.570618 1272.279297,218.137573 1259.301392,199.830292 
	C1242.668701,176.367447 1225.926758,152.981857 1209.159058,129.615250 
	C1208.348999,128.486511 1206.875610,127.185669 1205.647705,127.118172 
	C1200.549194,126.837891 1195.426270,127.000427 1190.973511,127.000427 
	C1189.969116,151.936996 1188.461304,176.373199 1188.124390,200.825546 
	C1187.637695,236.148941 1188.035400,271.484070 1187.984253,306.814087 
	C1187.960205,323.444733 1186.858521,321.941772 1203.143555,322.058319 
	C1207.435547,322.089050 1209.113281,320.853210 1209.098511,316.186920 
	C1208.940186,266.192017 1209.000000,216.196411 1209.000000,166.201004 
	C1209.000000,164.623138 1209.000000,163.045273 1209.000000,161.467422 
	C1209.311279,161.349365 1209.622559,161.231308 1209.933960,161.113266 
	C1222.965698,179.850693 1235.997437,198.588120 1249.431763,217.947800 
M2189.247559,321.966644 
	C2190.656006,321.641693 2192.373047,321.707825 2193.399414,320.898376 
	C2194.863525,319.743713 2197.033691,317.725128 2196.802002,316.460571 
	C2195.110107,307.231964 2192.892578,298.099762 2190.854980,288.999786 
	C2185.356934,288.999786 2180.531250,288.972473 2175.706299,289.008484 
	C2171.919189,289.036774 2169.486572,286.904541 2168.341309,283.678436 
	C2167.436523,281.129486 2167.067871,278.268707 2167.055176,275.543671 
	C2166.955811,254.226349 2167.059326,232.908035 2166.939697,211.590942 
	C2166.920654,208.180405 2167.862793,206.797821 2171.458008,206.933380 
	C2177.777588,207.171692 2184.113037,206.999008 2190.441650,206.999619 
	C2193.513428,206.999924 2195.187988,205.969131 2195.071533,202.392105 
	C2194.833008,195.071884 2194.898438,187.736526 2195.039307,180.411255 
	C2195.118652,176.297211 2193.269531,174.835953 2189.312744,174.954865 
	C2183.489014,175.129883 2177.648193,174.815674 2171.830078,175.067001 
	C2168.161621,175.225479 2166.819092,174.077759 2166.924316,170.279175 
	C2167.164062,161.625473 2166.891846,152.958542 2167.055908,144.301300 
	C2167.117188,141.062576 2166.047363,139.895096 2162.752930,139.942642 
	C2152.096191,140.096512 2141.433350,140.135773 2130.778564,139.926254 
	C2127.055908,139.853058 2125.844238,141.036087 2125.925781,144.770264 
	C2126.143799,154.712921 2126.000000,164.663483 2126.000000,175.000000 
	C2120.991699,175.000000 2116.371338,174.970917 2111.751221,175.007645 
	C2106.459961,175.049713 2105.048828,176.406372 2105.010742,181.573227 
	C2104.964355,187.901611 2105.262451,194.245041 2104.914795,200.554611 
	C2104.646729,205.423080 2106.890625,207.037933 2111.254639,207.007553 
	C2116.040771,206.974213 2120.827637,206.999954 2126.000000,206.999954 
	C2126.000000,209.010712 2126.000000,210.631714 2126.000000,212.252716 
	C2126.000000,236.901382 2125.822754,261.551849 2126.073730,286.197937 
	C2126.201416,298.717041 2131.563477,308.937317 2142.076172,315.942383 
	C2148.990479,320.549530 2156.586182,323.538208 2165.191895,323.056732 
	C2172.914551,322.624664 2180.645996,322.347748 2189.247559,321.966644 
M706.926636,201.334747 
	C697.169312,215.605881 687.411987,229.876999 677.071289,245.001343 
	C689.393311,245.001343 700.461121,244.087952 711.301941,245.265244 
	C721.580627,246.381500 727.015137,242.279327 730.988525,233.560669 
	C733.893799,227.185898 737.845276,221.287964 741.650940,214.615463 
	C747.335083,224.139755 752.843994,232.967880 757.874695,242.060638 
	C759.270569,244.583572 760.728882,245.061386 763.226868,245.042862 
	C775.554321,244.951431 787.882812,245.001328 800.210938,245.001389 
	C802.093933,245.001404 803.976929,245.001389 806.923401,245.001389 
	C802.257568,238.242722 798.278809,232.586594 794.411682,226.855118 
	C786.257141,214.769516 778.343323,202.516815 769.980713,190.577850 
	C763.815308,181.775909 763.471130,181.882690 769.226685,173.462189 
	C777.659485,161.125061 786.313538,148.939102 794.736633,136.595505 
	C798.057983,131.728363 801.011963,126.610550 804.510254,121.002373 
	C789.159607,121.002373 774.838806,120.954758 760.519714,121.090500 
	C759.342468,121.101662 757.846069,122.102226 757.076721,123.092621 
	C755.582031,125.016808 754.493774,127.257584 753.245605,129.372238 
	C749.429321,135.838058 745.616943,142.306274 741.588196,149.137863 
	C736.532654,140.121750 731.890259,131.717178 727.076233,123.412079 
	C726.457642,122.344788 724.954895,121.117744 723.849854,121.106293 
	C709.103638,120.953369 694.355286,121.004059 678.768616,121.004059 
	C692.229797,140.692169 705.261658,159.693542 718.172729,178.776627 
	C718.978882,179.968124 719.618958,182.296234 719.010742,183.253052 
	C715.246216,189.176102 711.101990,194.857788 706.926636,201.334747 
M1480.025391,146.458984 
	C1477.293945,149.527054 1474.601562,152.631058 1471.824463,155.657227 
	C1456.636353,172.207413 1441.399780,188.713211 1426.241211,205.290192 
	C1421.147217,210.861008 1416.216919,216.582184 1411.243774,222.262665 
	C1408.860962,224.984436 1406.552979,227.771851 1404.211060,230.529526 
	C1403.807373,230.174988 1403.403687,229.820465 1403.000000,229.465927 
	C1403.000000,221.834320 1403.000000,214.202713 1403.000000,206.571106 
	C1403.000000,181.739990 1403.011108,156.908844 1402.980591,132.077774 
	C1402.977905,129.892166 1403.800415,127.031532 1400.026367,127.009491 
	C1394.757812,126.978722 1389.489136,127.001732 1384.000000,127.001732 
	C1384.000000,129.365372 1384.000000,131.174683 1384.000000,132.983994 
	C1384.000000,191.478775 1384.000000,249.973572 1384.000000,308.468353 
	C1384.000000,322.564453 1383.997925,322.502869 1398.019165,322.042053 
	C1401.638916,321.923096 1403.125977,320.743561 1403.085327,316.812286 
	C1402.893799,298.315918 1402.943481,279.816040 1403.084839,261.318726 
	C1403.099365,259.407959 1403.801880,257.082642 1405.020386,255.670349 
	C1411.846436,247.758789 1418.897095,240.038986 1425.989624,232.363373 
	C1426.512329,231.797760 1428.543823,231.626099 1428.903442,232.065399 
	C1432.391724,236.328598 1435.647827,240.780640 1439.017700,245.142075 
	C1447.456299,256.063202 1455.854370,267.016632 1464.389771,277.861847 
	C1474.750854,291.026825 1485.454712,303.929596 1495.519897,317.314484 
	C1498.171143,320.839935 1500.821289,322.171295 1504.857300,322.026123 
	C1508.352539,321.900421 1511.863159,322.136536 1515.352539,321.946045 
	C1517.280518,321.840759 1519.178467,321.187225 1521.659912,320.659668 
	C1516.815308,314.897339 1512.440796,309.989685 1508.395142,304.824493 
	C1498.164551,291.762726 1488.186523,278.502594 1477.912231,265.475739 
	C1465.919434,250.270096 1453.697998,235.245056 1441.642456,220.088516 
	C1440.363159,218.480225 1439.428467,216.923126 1441.606079,214.683289 
	C1447.326782,208.799133 1452.565063,202.449921 1458.129761,196.409485 
	C1470.932251,182.511963 1483.783325,168.658844 1496.676636,154.845551 
	C1503.228394,147.826370 1509.967041,140.981445 1516.504883,133.949722 
	C1518.287476,132.032501 1519.649170,129.723831 1521.638306,127.000000 
	C1515.021606,127.000000 1509.353516,127.316315 1503.739502,126.900742 
	C1499.181641,126.563339 1495.856079,127.849152 1493.006226,131.411758 
	C1489.019287,136.395645 1484.717773,141.127899 1480.025391,146.458984 
M871.000000,277.500000 
	C871.000000,287.829193 871.000000,298.158356 871.000000,308.487549 
	C871.000000,322.670898 870.997253,322.600250 885.148621,322.047485 
	C888.878784,321.901825 890.133911,320.471863 890.079712,316.685852 
	C889.879333,302.694305 890.000000,288.698151 890.000000,274.703735 
	C890.000000,265.922577 890.000000,257.141388 890.000000,248.000000 
	C902.209778,248.000000 913.998474,248.115128 925.783447,247.956192 
	C932.694519,247.862991 939.650940,247.750549 946.496765,246.911102 
	C959.815735,245.277847 971.753296,240.182327 981.093323,230.304749 
	C989.735657,221.165039 994.382690,210.129852 996.102844,197.572281 
	C998.545959,179.737350 995.610962,163.549591 984.528503,148.923050 
	C973.492004,134.357178 958.452271,127.731346 940.919800,127.168007 
	C919.117615,126.467468 897.275940,126.995552 875.451294,127.010162 
	C874.019897,127.011116 872.588684,127.157822 871.000000,127.245407 
	C871.000000,177.240601 871.000000,226.870300 871.000000,277.500000 
M1125.500000,144.000000 
	C1132.832031,144.000000 1140.164185,144.000015 1147.496216,144.000000 
	C1159.047119,144.000000 1158.834717,143.994995 1159.106079,132.458160 
	C1159.212402,127.938469 1157.704346,126.896164 1153.405273,126.911385 
	C1111.746094,127.058945 1070.086182,127.000000 1028.426392,127.000000 
	C1016.944092,127.000000 1017.168884,127.005417 1016.889160,138.618958 
	C1016.777588,143.250610 1018.481506,144.139877 1022.672729,144.085846 
	C1039.000732,143.875351 1055.332886,143.999954 1071.663574,144.000031 
	C1078.996826,144.000061 1078.999512,144.000168 1078.999634,151.330917 
	C1079.000366,203.988831 1079.000000,256.646729 1079.000000,309.304657 
	C1079.000000,322.097504 1079.000732,321.984589 1091.852051,322.061951 
	C1096.276733,322.088562 1098.140991,321.044708 1098.123169,315.979156 
	C1097.926758,260.489044 1098.000000,204.998032 1098.000000,149.507248 
	C1098.000000,147.742081 1098.000000,145.976929 1098.000000,144.000000 
	C1107.213623,144.000000 1115.856812,144.000000 1125.500000,144.000000 
z"/>
<path fill="#EB0028" opacity="1.000000" stroke="none" 
	d="
M513.000000,321.000000 
	C502.202118,321.000000 491.904266,321.000000 481.306030,321.000000 
	C481.306030,254.268005 481.306030,187.904663 481.306030,120.999969 
	C483.209198,120.999969 484.988800,120.999969 486.768402,120.999977 
	C520.919739,121.000015 555.073792,120.735825 589.221558,121.086319 
	C615.075745,121.351685 637.032532,131.155731 652.958313,151.728745 
	C663.277344,165.058838 669.275696,180.752670 670.942078,197.720184 
	C671.956665,208.050964 673.247009,218.483994 672.797180,228.800598 
	C672.017517,246.679688 668.345642,263.921539 658.956848,279.737762 
	C649.409729,295.820770 635.847046,306.452942 618.674805,313.169434 
	C605.390686,318.365143 591.729309,321.064636 577.471313,321.018097 
	C556.147766,320.948517 534.823792,321.000000 513.000000,321.000000 
M543.996887,202.500000 
	C543.996887,224.571945 543.996887,246.643875 543.996887,268.994812 
	C553.985291,268.994812 563.330505,269.521790 572.577637,268.797272 
	C578.129517,268.362305 583.961121,266.821198 588.908691,264.293213 
	C600.310425,258.467407 606.542847,247.977524 608.647156,235.916870 
	C610.176147,227.153061 609.726013,217.839294 608.831299,208.903625 
	C607.367798,194.287674 599.107422,183.277542 586.072021,177.358932 
	C572.952637,171.402206 558.487427,172.521576 543.996887,173.303558 
	C543.996887,182.909637 543.996887,192.204819 543.996887,202.500000 
z"/>
<path fill="#EB0028" opacity="1.000000" stroke="none" 
	d="
M471.104065,196.967896 
	C471.402588,198.342468 471.955231,199.716080 471.960388,201.091751 
	C472.014038,215.423187 471.979736,229.754944 471.444550,244.546387 
	C437.817993,245.004105 404.716705,244.983994 371.615540,245.047699 
	C369.749786,245.051285 367.885315,245.744354 366.020264,246.116516 
	C366.020264,253.573929 366.020264,261.031342 366.020264,268.850830 
	C401.383820,268.850830 436.315430,268.850830 471.622192,268.850830 
	C471.622192,286.266235 471.622192,303.316772 471.622192,320.684998 
	C415.606873,320.684998 359.561371,320.684998 303.257507,320.684998 
	C303.257507,254.280640 303.257507,188.020432 303.257507,121.379944 
	C359.259338,121.379944 415.305267,121.379944 471.675842,121.379944 
	C471.675842,138.376511 471.675842,155.426041 471.675842,172.848419 
	C436.617096,172.848419 401.685547,172.848419 366.002930,172.848419 
	C366.002930,180.450806 366.002930,187.704681 366.277466,195.745239 
	C367.852051,196.687943 369.152008,196.979584 370.452087,196.980133 
	C404.002747,196.994522 437.553406,196.978577 471.104065,196.967896 
z"/>
<path fill="#EB0028" opacity="1.000000" stroke="none" 
	d="
M151.000000,121.000000 
	C199.113205,121.000000 246.726425,121.000000 294.669373,121.000000 
	C294.669373,138.358810 294.669373,155.404419 294.669373,172.807709 
	C276.336670,172.807709 258.073425,172.807709 239.292053,172.807709 
	C239.292053,222.190720 239.292053,271.223724 239.292053,320.627563 
	C218.066437,320.627563 197.356140,320.627563 176.123535,320.627563 
	C176.123535,271.641754 176.123535,222.608749 176.123535,173.210678 
	C157.683136,173.210678 139.755310,173.210678 121.414993,173.210678 
	C121.414993,155.808182 121.414993,138.764374 121.414993,121.000000 
	C130.994751,121.000000 140.747375,121.000000 151.000000,121.000000 
z"/>
<path fill="#FFFFFF" opacity="1.000000" stroke="none" 
	d="
M2253.000000,285.000000 
	C2253.000000,296.162964 2252.880127,306.828094 2253.071777,317.487610 
	C2253.130371,320.755951 2251.669189,321.959229 2248.843994,321.974243 
	C2237.681641,322.033661 2226.518555,322.017456 2215.355713,321.988342 
	C2211.894531,321.979340 2210.953857,319.859894 2210.975098,316.755157 
	C2211.042236,306.925690 2211.000000,297.095520 2211.000000,287.265594 
	C2211.000000,236.949738 2210.984863,186.633865 2211.037354,136.318069 
	C2211.040527,133.290466 2211.583008,130.263412 2211.896973,127.000427 
	C2224.400879,127.000427 2236.376953,127.087440 2248.350586,126.950615 
	C2252.249512,126.906067 2252.018066,129.277420 2252.015137,131.900528 
	C2251.989258,154.391922 2252.000000,176.883377 2252.000000,199.479218 
	C2255.405273,195.067459 2258.374023,190.401276 2262.136230,186.499985 
	C2273.660645,174.549896 2287.982666,171.720062 2304.007324,173.863403 
	C2315.178955,175.357590 2325.035645,179.372818 2332.751221,187.436646 
	C2340.243408,195.267014 2344.622070,204.823380 2346.050049,215.772156 
	C2350.407471,249.188110 2346.803711,282.738068 2347.989258,316.202606 
	C2348.134033,320.291718 2345.938965,322.031586 2341.968506,322.014496 
	C2331.805664,321.970795 2321.642334,322.006775 2311.479248,321.997253 
	C2306.036621,321.992157 2305.022217,320.992462 2305.011719,315.279785 
	C2304.979492,297.785919 2304.893066,280.291046 2305.040771,262.798370 
	C2305.126953,252.567261 2306.596191,242.254547 2305.714111,232.129120 
	C2304.171875,214.417755 2291.427246,205.267075 2273.934326,208.926163 
	C2264.754395,210.846313 2258.379150,216.065170 2255.274902,224.667099 
	C2253.713623,228.993607 2253.175781,233.872726 2253.097168,238.517517 
	C2252.838135,253.841187 2253.000000,269.171967 2253.000000,285.000000 
z"/>
<path fill="#FFFFFF" opacity="1.000000" stroke="none" 
	d="
M1822.819580,309.315369 
	C1812.602783,300.288025 1805.246094,289.549652 1801.651123,276.920227 
	C1798.389160,265.460602 1796.151123,253.766693 1797.747437,241.414627 
	C1799.168701,230.417618 1800.865356,219.618225 1806.120117,209.901550 
	C1814.297119,194.780762 1825.806152,183.394623 1842.796021,177.788239 
	C1852.702026,174.519363 1862.594604,172.615891 1872.856934,173.077667 
	C1890.613770,173.876648 1907.103271,178.939728 1919.955200,191.674332 
	C1932.872803,204.473969 1939.972900,220.139877 1941.247192,238.717255 
	C1941.927734,248.638977 1941.568481,258.264801 1940.001343,267.966278 
	C1938.183105,279.221191 1933.851807,289.487488 1926.924316,298.463898 
	C1916.186401,312.377960 1901.963379,320.630371 1884.477173,322.984222 
	C1878.355469,323.808228 1872.120483,325.283264 1866.065186,324.812775 
	C1851.164307,323.655151 1836.691162,320.552673 1824.819214,310.384827 
	C1824.349609,309.982727 1823.654175,309.844391 1822.819580,309.315369 
M1843.997681,224.668533 
	C1842.983887,229.532166 1841.826050,234.371017 1840.984009,239.264191 
	C1838.608887,253.066437 1840.292236,266.341125 1847.011475,278.719086 
	C1853.865234,291.344696 1868.943237,294.864777 1881.243164,289.280975 
	C1891.412964,284.664124 1895.968384,275.454132 1897.705933,265.633484 
	C1900.177979,251.663284 1900.302002,237.511658 1895.117310,223.648865 
	C1889.087402,207.526123 1870.697388,199.754578 1855.487915,209.797333 
	C1850.015137,213.410965 1847.158081,218.620926 1843.997681,224.668533 
z"/>
<path fill="#FFFFFF" opacity="1.000000" stroke="none" 
	d="
M2023.161255,288.000000 
	C2036.930054,289.202728 2048.261475,279.613770 2050.249512,269.239929 
	C2050.582275,267.502930 2050.965332,265.735382 2050.968262,263.981323 
	C2051.013672,236.815460 2050.995605,209.649506 2051.002930,182.483566 
	C2051.004883,176.152557 2052.124268,175.013641 2058.348633,175.004044 
	C2068.181641,174.988876 2078.018311,175.151688 2087.846191,174.923630 
	C2091.656250,174.835205 2093.098633,175.763702 2093.086182,179.899796 
	C2092.948975,225.564835 2092.958008,271.230560 2093.075439,316.895691 
	C2093.085449,320.759674 2092.139648,322.203339 2088.050049,322.088928 
	C2078.224609,321.814117 2068.385010,321.910156 2058.553711,322.043091 
	C2054.487305,322.098114 2052.637207,320.884613 2052.900635,316.378082 
	C2053.286621,309.775635 2053.000000,303.133850 2053.000000,294.992401 
	C2046.474243,310.794495 2035.079224,318.980469 2020.379639,322.796204 
	C2000.338867,327.998444 1976.601562,318.437286 1966.357666,300.491791 
	C1961.834229,292.567596 1958.948364,283.750397 1958.971436,274.263550 
	C1959.047485,242.931244 1959.076172,211.598206 1958.909546,180.266617 
	C1958.887085,176.056671 1960.101440,174.796539 1964.288086,174.909058 
	C1974.613647,175.186584 1984.954956,175.146744 1995.283081,174.923386 
	C1999.090332,174.841064 2000.087036,176.186646 2000.068848,179.837006 
	C1999.939697,205.835678 1999.835449,231.837173 2000.134888,257.833038 
	C2000.196777,263.218658 2001.515381,268.725006 2003.081299,273.926941 
	C2005.521973,282.033875 2014.196777,287.904388 2023.161255,288.000000 
z"/>
<path fill="#FFFFFF" opacity="1.000000" stroke="none" 
	d="
M1656.281006,212.723953 
	C1640.150024,184.295181 1624.262207,156.160126 1607.795532,127.000000 
	C1614.040771,127.000000 1618.950562,127.000000 1623.860229,127.000000 
	C1633.023193,127.000000 1642.193359,126.808662 1651.343384,127.153496 
	C1653.288452,127.226807 1656.006836,128.785156 1656.930908,130.455109 
	C1664.149658,143.500656 1671.009399,156.744736 1677.995361,169.919327 
	C1685.047485,183.218674 1692.117676,196.508469 1699.684937,210.753098 
	C1702.408325,205.890610 1704.851807,201.688614 1707.145142,197.406158 
	C1718.266479,176.637848 1729.352539,155.850632 1740.421875,135.054504 
	C1740.788208,134.366180 1740.723511,133.456558 1741.053955,132.739548 
	C1742.741333,129.076736 1744.696167,126.658768 1749.677734,126.834373 
	C1763.315186,127.315125 1776.980713,127.000000 1791.391357,127.000000 
	C1788.320679,132.906296 1785.645508,138.448135 1782.621338,143.792480 
	C1774.559814,158.039429 1766.315918,172.183029 1758.203735,186.401550 
	C1747.217407,205.657913 1736.240112,224.919769 1725.363770,244.238312 
	C1722.660767,249.039459 1720.721924,253.927292 1720.850830,259.860046 
	C1721.255859,278.510376 1720.911133,297.175751 1721.065186,315.833588 
	C1721.101562,320.253967 1719.656738,322.151031 1715.065674,322.061584 
	C1704.906982,321.863708 1694.741699,322.029602 1684.579224,321.987610 
	C1679.410034,321.966217 1677.980347,320.537994 1678.016968,315.251465 
	C1678.158081,294.823273 1678.462524,274.395325 1678.413086,253.968002 
	C1678.407471,251.654358 1676.729004,249.245346 1675.517944,247.050674 
	C1669.241821,235.675903 1662.865356,224.356400 1656.281006,212.723953 
z"/>
<path fill="#FFFFFF" opacity="1.000000" stroke="none" 
	d="
M1249.230469,217.636673 
	C1235.997437,198.588120 1222.965698,179.850693 1209.933960,161.113266 
	C1209.622559,161.231308 1209.311279,161.349365 1209.000000,161.467422 
	C1209.000000,163.045273 1209.000000,164.623138 1209.000000,166.201004 
	C1209.000000,216.196411 1208.940186,266.192017 1209.098511,316.186920 
	C1209.113281,320.853210 1207.435547,322.089050 1203.143555,322.058319 
	C1186.858521,321.941772 1187.960205,323.444733 1187.984253,306.814087 
	C1188.035400,271.484070 1187.637695,236.148941 1188.124390,200.825546 
	C1188.461304,176.373199 1189.969116,151.936996 1190.973511,127.000427 
	C1195.426270,127.000427 1200.549194,126.837891 1205.647705,127.118172 
	C1206.875610,127.185669 1208.348999,128.486511 1209.159058,129.615250 
	C1225.926758,152.981857 1242.668701,176.367447 1259.301392,199.830292 
	C1272.279297,218.137573 1285.079468,236.570618 1298.001953,254.917404 
	C1305.536743,265.615082 1313.156738,276.252838 1321.676025,288.236328 
	C1322.257446,283.994110 1322.948730,281.285400 1322.952393,278.575775 
	C1323.017822,230.080322 1323.000000,181.584763 1323.000000,133.089218 
	C1323.000000,131.269363 1323.000000,129.449493 1323.000000,127.011238 
	C1328.569092,127.011238 1334.001709,126.875793 1339.414307,127.144112 
	C1340.320190,127.189011 1341.365356,128.874680 1341.921875,130.010147 
	C1342.317261,130.816544 1342.000000,131.972443 1342.000000,132.972351 
	C1342.000122,193.966751 1341.939331,254.961304 1342.113037,315.955200 
	C1342.127197,320.923309 1340.362061,322.461823 1335.875488,322.002197 
	C1335.710571,321.985291 1335.536621,321.971558 1335.376587,322.004089 
	C1326.258301,323.859650 1321.058350,319.621918 1316.168579,312.023499 
	C1306.733276,297.362183 1295.911377,283.599976 1285.877197,269.315460 
	C1274.753418,253.479630 1263.883545,237.465652 1252.850220,221.565887 
	C1251.915039,220.218094 1250.580688,219.147278 1249.230469,217.636673 
z"/>
<path fill="#FFFFFF" opacity="1.000000" stroke="none" 
	d="
M2188.810547,321.984497 
	C2180.645996,322.347748 2172.914551,322.624664 2165.191895,323.056732 
	C2156.586182,323.538208 2148.990479,320.549530 2142.076172,315.942383 
	C2131.563477,308.937317 2126.201416,298.717041 2126.073730,286.197937 
	C2125.822754,261.551849 2126.000000,236.901382 2126.000000,212.252716 
	C2126.000000,210.631714 2126.000000,209.010712 2126.000000,206.999954 
	C2120.827637,206.999954 2116.040771,206.974213 2111.254639,207.007553 
	C2106.890625,207.037933 2104.646729,205.423080 2104.914795,200.554611 
	C2105.262451,194.245041 2104.964355,187.901611 2105.010742,181.573227 
	C2105.048828,176.406372 2106.459961,175.049713 2111.751221,175.007645 
	C2116.371338,174.970917 2120.991699,175.000000 2126.000000,175.000000 
	C2126.000000,164.663483 2126.143799,154.712921 2125.925781,144.770264 
	C2125.844238,141.036087 2127.055908,139.853058 2130.778564,139.926254 
	C2141.433350,140.135773 2152.096191,140.096512 2162.752930,139.942642 
	C2166.047363,139.895096 2167.117188,141.062576 2167.055908,144.301300 
	C2166.891846,152.958542 2167.164062,161.625473 2166.924316,170.279175 
	C2166.819092,174.077759 2168.161621,175.225479 2171.830078,175.067001 
	C2177.648193,174.815674 2183.489014,175.129883 2189.312744,174.954865 
	C2193.269531,174.835953 2195.118652,176.297211 2195.039307,180.411255 
	C2194.898438,187.736526 2194.833008,195.071884 2195.071533,202.392105 
	C2195.187988,205.969131 2193.513428,206.999924 2190.441650,206.999619 
	C2184.113037,206.999008 2177.777588,207.171692 2171.458008,206.933380 
	C2167.862793,206.797821 2166.920654,208.180405 2166.939697,211.590942 
	C2167.059326,232.908035 2166.955811,254.226349 2167.055176,275.543671 
	C2167.067871,278.268707 2167.436523,281.129486 2168.341309,283.678436 
	C2169.486572,286.904541 2171.919189,289.036774 2175.706299,289.008484 
	C2180.531250,288.972473 2185.356934,288.999786 2190.854980,288.999786 
	C2192.892578,298.099762 2195.110107,307.231964 2196.802002,316.460571 
	C2197.033691,317.725128 2194.863525,319.743713 2193.399414,320.898376 
	C2192.373047,321.707825 2190.656006,321.641693 2188.810547,321.984497 
z"/>
<path fill="#EB0028" opacity="1.000000" stroke="none" 
	d="
M707.005249,200.977188 
	C711.101990,194.857788 715.246216,189.176102 719.010742,183.253052 
	C719.618958,182.296234 718.978882,179.968124 718.172729,178.776627 
	C705.261658,159.693542 692.229797,140.692169 678.768616,121.004059 
	C694.355286,121.004059 709.103638,120.953369 723.849854,121.106293 
	C724.954895,121.117744 726.457642,122.344788 727.076233,123.412079 
	C731.890259,131.717178 736.532654,140.121750 741.588196,149.137863 
	C745.616943,142.306274 749.429321,135.838058 753.245605,129.372238 
	C754.493774,127.257584 755.582031,125.016808 757.076721,123.092621 
	C757.846069,122.102226 759.342468,121.101662 760.519714,121.090500 
	C774.838806,120.954758 789.159607,121.002373 804.510254,121.002373 
	C801.011963,126.610550 798.057983,131.728363 794.736633,136.595505 
	C786.313538,148.939102 777.659485,161.125061 769.226685,173.462189 
	C763.471130,181.882690 763.815308,181.775909 769.980713,190.577850 
	C778.343323,202.516815 786.257141,214.769516 794.411682,226.855118 
	C798.278809,232.586594 802.257568,238.242722 806.923401,245.001389 
	C803.976929,245.001389 802.093933,245.001404 800.210938,245.001389 
	C787.882812,245.001328 775.554321,244.951431 763.226868,245.042862 
	C760.728882,245.061386 759.270569,244.583572 757.874695,242.060638 
	C752.843994,232.967880 747.335083,224.139755 741.650940,214.615463 
	C737.845276,221.287964 733.893799,227.185898 730.988525,233.560669 
	C727.015137,242.279327 721.580627,246.381500 711.301941,245.265244 
	C700.461121,244.087952 689.393311,245.001343 677.071289,245.001343 
	C687.411987,229.876999 697.169312,215.605881 707.005249,200.977188 
z"/>
<path fill="#FFFFFF" opacity="1.000000" stroke="none" 
	d="
M1480.288086,146.213409 
	C1484.717773,141.127899 1489.019287,136.395645 1493.006226,131.411758 
	C1495.856079,127.849152 1499.181641,126.563339 1503.739502,126.900742 
	C1509.353516,127.316315 1515.021606,127.000000 1521.638306,127.000000 
	C1519.649170,129.723831 1518.287476,132.032501 1516.504883,133.949722 
	C1509.967041,140.981445 1503.228394,147.826370 1496.676636,154.845551 
	C1483.783325,168.658844 1470.932251,182.511963 1458.129761,196.409485 
	C1452.565063,202.449921 1447.326782,208.799133 1441.606079,214.683289 
	C1439.428467,216.923126 1440.363159,218.480225 1441.642456,220.088516 
	C1453.697998,235.245056 1465.919434,250.270096 1477.912231,265.475739 
	C1488.186523,278.502594 1498.164551,291.762726 1508.395142,304.824493 
	C1512.440796,309.989685 1516.815308,314.897339 1521.659912,320.659668 
	C1519.178467,321.187225 1517.280518,321.840759 1515.352539,321.946045 
	C1511.863159,322.136536 1508.352539,321.900421 1504.857300,322.026123 
	C1500.821289,322.171295 1498.171143,320.839935 1495.519897,317.314484 
	C1485.454712,303.929596 1474.750854,291.026825 1464.389771,277.861847 
	C1455.854370,267.016632 1447.456299,256.063202 1439.017700,245.142075 
	C1435.647827,240.780640 1432.391724,236.328598 1428.903442,232.065399 
	C1428.543823,231.626099 1426.512329,231.797760 1425.989624,232.363373 
	C1418.897095,240.038986 1411.846436,247.758789 1405.020386,255.670349 
	C1403.801880,257.082642 1403.099365,259.407959 1403.084839,261.318726 
	C1402.943481,279.816040 1402.893799,298.315918 1403.085327,316.812286 
	C1403.125977,320.743561 1401.638916,321.923096 1398.019165,322.042053 
	C1383.997925,322.502869 1384.000000,322.564453 1384.000000,308.468353 
	C1384.000000,249.973572 1384.000000,191.478775 1384.000000,132.983994 
	C1384.000000,131.174683 1384.000000,129.365372 1384.000000,127.001732 
	C1389.489136,127.001732 1394.757812,126.978722 1400.026367,127.009491 
	C1403.800415,127.031532 1402.977905,129.892166 1402.980591,132.077774 
	C1403.011108,156.908844 1403.000000,181.739990 1403.000000,206.571106 
	C1403.000000,214.202713 1403.000000,221.834320 1403.000000,229.465927 
	C1403.403687,229.820465 1403.807373,230.174988 1404.211060,230.529526 
	C1406.552979,227.771851 1408.860962,224.984436 1411.243774,222.262665 
	C1416.216919,216.582184 1421.147217,210.861008 1426.241211,205.290192 
	C1441.399780,188.713211 1456.636353,172.207413 1471.824463,155.657227 
	C1474.601562,152.631058 1477.293945,149.527054 1480.288086,146.213409 
z"/>
<path fill="#FFFFFF" opacity="1.000000" stroke="none" 
	d="
M871.000000,277.000000 
	C871.000000,226.870300 871.000000,177.240601 871.000000,127.245407 
	C872.588684,127.157822 874.019897,127.011116 875.451294,127.010162 
	C897.275940,126.995552 919.117615,126.467468 940.919800,127.168007 
	C958.452271,127.731346 973.492004,134.357178 984.528503,148.923050 
	C995.610962,163.549591 998.545959,179.737350 996.102844,197.572281 
	C994.382690,210.129852 989.735657,221.165039 981.093323,230.304749 
	C971.753296,240.182327 959.815735,245.277847 946.496765,246.911102 
	C939.650940,247.750549 932.694519,247.862991 925.783447,247.956192 
	C913.998474,248.115128 902.209778,248.000000 890.000000,248.000000 
	C890.000000,257.141388 890.000000,265.922577 890.000000,274.703735 
	C890.000000,288.698151 889.879333,302.694305 890.079712,316.685852 
	C890.133911,320.471863 888.878784,321.901825 885.148621,322.047485 
	C870.997253,322.600250 871.000000,322.670898 871.000000,308.487549 
	C871.000000,298.158356 871.000000,287.829193 871.000000,277.000000 
M906.501587,144.000000 
	C901.073975,144.000000 895.646423,144.000000 890.246216,144.000000 
	C890.246216,172.941818 890.246216,201.321106 890.246216,229.998917 
	C907.934998,229.998917 925.421875,230.732407 942.807434,229.722580 
	C953.159607,229.121277 962.363831,224.371338 969.199280,215.567383 
	C977.255737,205.190735 979.001221,193.385208 977.833923,181.069931 
	C976.990051,172.166656 973.783142,163.811234 967.578247,156.890869 
	C959.372070,147.738586 948.451050,144.882095 936.954407,144.131805 
	C927.175415,143.493591 917.321838,144.000000 906.501587,144.000000 
z"/>
<path fill="#FFFFFF" opacity="1.000000" stroke="none" 
	d="
M1125.000000,144.000000 
	C1115.856812,144.000000 1107.213623,144.000000 1098.000000,144.000000 
	C1098.000000,145.976929 1098.000000,147.742081 1098.000000,149.507248 
	C1098.000000,204.998032 1097.926758,260.489044 1098.123169,315.979156 
	C1098.140991,321.044708 1096.276733,322.088562 1091.852051,322.061951 
	C1079.000732,321.984589 1079.000000,322.097504 1079.000000,309.304657 
	C1079.000000,256.646729 1079.000366,203.988831 1078.999634,151.330917 
	C1078.999512,144.000168 1078.996826,144.000061 1071.663574,144.000031 
	C1055.332886,143.999954 1039.000732,143.875351 1022.672729,144.085846 
	C1018.481506,144.139877 1016.777588,143.250610 1016.889160,138.618958 
	C1017.168884,127.005417 1016.944092,127.000000 1028.426392,127.000000 
	C1070.086182,127.000000 1111.746094,127.058945 1153.405273,126.911385 
	C1157.704346,126.896164 1159.212402,127.938469 1159.106079,132.458160 
	C1158.834717,143.994995 1159.047119,144.000000 1147.496216,144.000000 
	C1140.164185,144.000015 1132.832031,144.000000 1125.000000,144.000000 
z"/>
<path fill="#FF0033" opacity="1.000000" stroke="none" 
	d="
M366.485413,246.067444 
	C367.885315,245.744354 369.749786,245.051285 371.615540,245.047699 
	C404.716705,244.983994 437.817993,245.004105 471.376648,245.011719 
	C470.184357,245.344864 468.535217,245.955200 466.884979,245.958267 
	C433.573578,246.020111 400.262054,246.012253 366.485413,246.067444 
z"/>
<path fill="#FF0033" opacity="1.000000" stroke="none" 
	d="
M470.861694,196.603210 
	C437.553406,196.978577 404.002747,196.994522 370.452087,196.980133 
	C369.152008,196.979584 367.852051,196.687943 366.284790,196.206360 
	C398.899994,195.920532 431.782410,195.956253 464.664825,196.009888 
	C466.649811,196.013138 468.634491,196.159027 470.861694,196.603210 
z"/>
<path fill="#000000" opacity="1.000000" stroke="none" 
	d="
M543.996887,202.000000 
	C543.996887,192.204819 543.996887,182.909637 543.996887,173.303558 
	C558.487427,172.521576 572.952637,171.402206 586.072021,177.358932 
	C599.107422,183.277542 607.367798,194.287674 608.831299,208.903625 
	C609.726013,217.839294 610.176147,227.153061 608.647156,235.916870 
	C606.542847,247.977524 600.310425,258.467407 588.908691,264.293213 
	C583.961121,266.821198 578.129517,268.362305 572.577637,268.797272 
	C563.330505,269.521790 553.985291,268.994812 543.996887,268.994812 
	C543.996887,246.643875 543.996887,224.571945 543.996887,202.000000 
z"/>
<path fill="#000000" opacity="1.000000" stroke="none" 
	d="
M1844.010742,224.264221 
	C1847.158081,218.620926 1850.015137,213.410965 1855.487915,209.797333 
	C1870.697388,199.754578 1889.087402,207.526123 1895.117310,223.648865 
	C1900.302002,237.511658 1900.177979,251.663284 1897.705933,265.633484 
	C1895.968384,275.454132 1891.412964,284.664124 1881.243164,289.280975 
	C1868.943237,294.864777 1853.865234,291.344696 1847.011475,278.719086 
	C1840.292236,266.341125 1838.608887,253.066437 1840.984009,239.264191 
	C1841.826050,234.371017 1842.983887,229.532166 1844.010742,224.264221 
z"/>
<path fill="#000000" opacity="1.000000" stroke="none" 
	d="
M907.001404,144.000000 
	C917.321838,144.000000 927.175415,143.493591 936.954407,144.131805 
	C948.451050,144.882095 959.372070,147.738586 967.578247,156.890869 
	C973.783142,163.811234 976.990051,172.166656 977.833923,181.069931 
	C979.001221,193.385208 977.255737,205.190735 969.199280,215.567383 
	C962.363831,224.371338 953.159607,229.121277 942.807434,229.722580 
	C925.421875,230.732407 907.934998,229.998917 890.246216,229.998917 
	C890.246216,201.321106 890.246216,172.941818 890.246216,144.000000 
	C895.646423,144.000000 901.073975,144.000000 907.001404,144.000000 
z"/>
</svg>