<svg xmlns="http://www.w3.org/2000/svg" width="2515" height="440" viewBox="0 0 2515 440" version="1.1"><path d="M 120 146 L 120 172 148 172 L 176 172 176 246 L 176 320 207 320 L 238 320 238 246.016 L 238 172.032 265.750 171.766 L 293.500 171.500 293.767 145.750 L 294.034 120 207.017 120 L 120 120 120 146 M 302 220 L 302 320 386.500 320 L 471 320 471 294 L 471 268 418 268 L 365 268 365 256 L 365 244 418 244 L 471 244 471 220 L 471 196 418 196 L 365 196 365 184 L 365 172 418 172 L 471 172 471 146 L 471 120 386.500 120 L 302 120 302 220 M 480 219.950 L 480 320 531.879 320 C 578.347 320, 584.892 319.802, 594.629 318.102 C 636.311 310.823, 660.831 287.537, 669.179 247.303 C 672.059 233.421, 672.314 208.256, 669.711 194.678 C 663.631 162.954, 648.880 141.177, 625.563 129.507 C 607.657 120.546, 608.846 120.675, 540.250 120.262 L 480 119.899 480 219.950 M 679 120.520 C 679 121.048, 687.650 133.869, 705.637 160 C 711.126 167.975, 716.451 175.921, 717.470 177.659 L 719.323 180.817 708.967 196.159 C 703.271 204.596, 695.117 216.675, 690.845 223 C 686.574 229.325, 682.710 234.950, 682.258 235.500 C 681.806 236.050, 680.402 238.188, 679.137 240.250 L 676.837 244 699.782 244 L 722.726 244 731.467 229 C 736.274 220.750, 740.498 214, 740.854 214.001 C 741.209 214.002, 742.850 216.333, 744.500 219.183 C 746.150 222.032, 748.559 226.194, 749.853 228.432 C 751.147 230.669, 753.767 235.088, 755.675 238.250 L 759.145 244 781.572 244 C 797.322 244, 804 243.670, 804 242.891 C 804 242.282, 800.699 236.994, 796.664 231.141 C 792.629 225.289, 783.235 211.498, 775.789 200.494 L 762.250 180.489 782.625 150.695 C 793.831 134.308, 803 120.698, 803 120.450 C 803 120.203, 792.754 120, 780.231 120 L 757.461 120 749.981 133.130 C 745.866 140.352, 742.050 146.880, 741.500 147.637 C 740.745 148.676, 738.542 145.464, 732.500 134.515 L 724.500 120.016 701.750 120.008 C 689.237 120.004, 679 120.234, 679 120.520 M 543 219.994 L 543 268.223 560.750 267.778 C 576.078 267.394, 579.284 267.028, 584.247 265.096 C 591.659 262.210, 599.992 254.618, 603.269 247.762 C 608.034 237.797, 608.502 235.241, 608.453 219.500 C 608.411 206.315, 608.130 203.804, 606.130 198.748 C 601.706 187.564, 592.739 178.937, 581.168 174.731 C 576.597 173.070, 572.354 172.583, 559.250 172.218 L 543 171.765 543 219.994" stroke="none" fill="#ec042b" fill-rule="evenodd"/><path d="M 870.667 126.667 C 870.300 127.033, 870 170.683, 870 223.667 L 870 320 879.488 320 L 888.975 320 889.238 283.426 L 889.500 246.852 911.640 246.960 C 923.817 247.019, 937.992 246.556, 943.140 245.930 C 971.078 242.535, 988.824 226.504, 994.376 199.643 C 996.403 189.835, 996.427 183.173, 994.469 173.815 C 990.818 156.362, 984.564 146.071, 972.285 137.309 C 958.165 127.233, 951.001 126, 906.601 126 C 887.204 126, 871.033 126.300, 870.667 126.667 M 1016.422 127.342 C 1016.136 128.088, 1016.036 131.804, 1016.201 135.599 L 1016.500 142.500 1047.250 142.764 L 1078 143.029 1078 231.514 L 1078 320 1086.893 320 C 1094.080 320, 1095.902 319.697, 1096.393 318.418 C 1096.727 317.548, 1097 277.730, 1097 229.933 L 1097 143.029 1127.250 142.765 L 1157.500 142.500 1157.500 134.500 L 1157.500 126.500 1087.221 126.243 C 1028.816 126.030, 1016.855 126.216, 1016.422 127.342 M 1189.577 126.875 C 1189.254 127.399, 1188.692 171.066, 1188.329 223.914 L 1187.670 320 1197.228 320 C 1205.167 320, 1206.893 319.722, 1207.416 318.359 C 1207.762 317.456, 1208.014 281.402, 1207.976 238.239 C 1207.937 195.076, 1208.041 159.626, 1208.207 159.460 C 1208.372 159.294, 1212.106 164.312, 1216.504 170.610 C 1223.612 180.790, 1259.087 231.061, 1268.794 244.710 C 1270.832 247.576, 1279.475 259.847, 1288 271.978 C 1296.525 284.110, 1307.574 299.765, 1312.553 306.768 L 1321.605 319.500 1330.468 319.791 C 1336.883 320.002, 1339.557 319.726, 1340.150 318.791 C 1340.601 318.081, 1340.976 275.174, 1340.985 223.441 C 1340.997 148.949, 1340.736 129.021, 1339.730 127.645 C 1338.672 126.198, 1337.125 125.957, 1330.480 126.204 L 1322.500 126.500 1322.244 206.750 C 1322.093 254.035, 1321.615 287, 1321.079 287 C 1320.579 287, 1312.819 276.628, 1303.835 263.950 C 1294.851 251.273, 1280.578 231.135, 1272.118 219.200 C 1263.657 207.265, 1255.002 195.025, 1252.884 192 C 1250.766 188.975, 1245.656 181.775, 1241.529 176 C 1237.401 170.225, 1231.538 161.900, 1228.500 157.500 C 1225.462 153.100, 1219.268 144.325, 1214.736 138 L 1206.496 126.500 1198.331 126.211 C 1193.841 126.052, 1189.901 126.351, 1189.577 126.875 M 1383.667 126.667 C 1383.300 127.033, 1383 170.700, 1383 223.704 L 1383 320.075 1392.250 319.788 L 1401.500 319.500 1402 287.791 L 1402.500 256.082 1411 246.364 C 1415.675 241.019, 1420.795 235.151, 1422.377 233.323 C 1423.960 231.495, 1425.760 230.024, 1426.377 230.053 C 1427.388 230.100, 1433.590 237.840, 1461 273.265 C 1465.675 279.307, 1473.325 289.087, 1478 294.999 C 1482.675 300.911, 1488.975 308.951, 1492 312.866 L 1497.500 319.984 1508.814 319.992 L 1520.128 320 1513.814 311.977 C 1491.778 283.974, 1481.156 270.524, 1470 256.500 C 1463.875 248.800, 1454.165 236.496, 1448.421 229.158 L 1437.977 215.816 1443.817 209.658 C 1449.805 203.343, 1467.961 183.733, 1480.997 169.500 C 1485.027 165.100, 1493.333 156.100, 1499.454 149.500 C 1505.576 142.900, 1512.699 135.208, 1515.282 132.407 C 1517.866 129.606, 1519.685 127.018, 1519.323 126.657 C 1518.962 126.296, 1513.748 126, 1507.736 126 L 1496.806 126 1492.153 131.248 C 1489.594 134.134, 1484.382 139.871, 1480.571 143.998 C 1472.785 152.429, 1469.699 155.814, 1455.501 171.500 C 1450.025 177.550, 1444.116 184.075, 1442.370 186 C 1438.822 189.912, 1438.438 190.336, 1417.551 213.417 C 1409.330 222.503, 1402.451 229.784, 1402.266 229.599 C 1402.080 229.414, 1401.953 206.646, 1401.982 179.004 C 1402.020 142.793, 1401.716 128.363, 1400.895 127.373 C 1399.705 125.940, 1384.997 125.336, 1383.667 126.667 M 1608.667 126.667 C 1608.056 127.278, 1609.485 130.154, 1617.526 144.500 C 1619.068 147.250, 1621.206 151.075, 1622.277 153 C 1623.348 154.925, 1627.943 163.025, 1632.487 171 C 1637.032 178.975, 1649.132 200.383, 1659.375 218.573 L 1678 251.646 1678 285.823 L 1678 320 1698.500 320 L 1719 320 1719 286.368 L 1719 252.736 1726.368 239.618 C 1730.421 232.403, 1736.414 221.775, 1739.685 216 C 1742.957 210.225, 1749.940 197.850, 1755.204 188.500 C 1760.467 179.150, 1767.832 166.100, 1771.569 159.500 C 1785.562 134.793, 1788.979 128.467, 1788.989 127.250 C 1788.998 126.287, 1783.864 126, 1766.622 126 C 1749.915 126, 1743.994 126.317, 1743.256 127.250 C 1742.712 127.938, 1739.217 134.350, 1735.489 141.500 C 1731.761 148.650, 1728.394 154.950, 1728.005 155.500 C 1727.617 156.050, 1723.776 163.250, 1719.469 171.500 C 1715.162 179.750, 1709.245 190.966, 1706.319 196.425 C 1703.394 201.884, 1701 206.666, 1701 207.053 C 1701 207.439, 1700.395 208.257, 1699.656 208.871 C 1698.583 209.761, 1697.343 208.120, 1693.510 200.743 C 1690.870 195.659, 1683.326 181.375, 1676.747 169 C 1670.168 156.625, 1662.334 141.887, 1659.338 136.250 L 1653.891 126 1631.612 126 C 1619.359 126, 1609.033 126.300, 1608.667 126.667 M 2211.688 126.646 C 2211.309 127.024, 2211 170.683, 2211 223.667 L 2211 320 2231.446 320 L 2251.891 320 2252.196 273.250 C 2252.488 228.273, 2252.579 226.329, 2254.590 222 C 2259.220 212.030, 2269.749 206.356, 2281.992 207.232 C 2290.065 207.809, 2295.838 210.715, 2299.549 216.070 C 2304.669 223.459, 2304.975 226.788, 2304.988 275.250 L 2305 320 2325.563 320 L 2346.125 320 2345.743 266.250 C 2345.412 219.623, 2345.143 211.864, 2343.714 207.703 C 2339.014 194.013, 2329.967 183.212, 2318.526 177.632 C 2315.292 176.055, 2308.660 174.058, 2303.789 173.195 C 2295.577 171.740, 2294.268 171.752, 2285.813 173.373 C 2280.797 174.335, 2274.438 176.265, 2271.681 177.662 C 2265.576 180.755, 2257.056 189.080, 2253.859 195.075 L 2251.500 199.500 2251 163 L 2250.500 126.500 2231.438 126.229 C 2220.953 126.080, 2212.066 126.268, 2211.688 126.646 M 2126.706 140.250 C 2125.275 141.316, 2124.990 143.924, 2124.765 158 L 2124.500 174.500 2114.750 174.786 L 2105 175.072 2105 190 L 2105 204.928 2114.750 205.214 L 2124.500 205.500 2125.014 249.500 L 2125.529 293.500 2128.154 299.125 C 2133.080 309.679, 2141.010 316.345, 2153.125 320.116 C 2163.586 323.372, 2191.308 322.143, 2195.134 318.254 C 2195.542 317.839, 2195.243 314.350, 2194.469 310.500 C 2191.781 297.121, 2190.040 289.707, 2189.449 289.115 C 2189.121 288.788, 2185.073 288.516, 2180.452 288.510 C 2172.612 288.501, 2171.866 288.315, 2169.276 285.728 L 2166.500 282.956 2166.500 244.228 L 2166.500 205.500 2179.460 205.219 C 2188.290 205.027, 2192.668 204.549, 2193.195 203.719 C 2193.621 203.048, 2193.969 196.875, 2193.969 190 C 2193.969 183.125, 2193.621 176.952, 2193.195 176.281 C 2192.668 175.451, 2188.290 174.973, 2179.460 174.781 L 2166.500 174.500 2166.225 157.543 C 2166.030 145.513, 2165.594 140.361, 2164.725 139.809 C 2162.579 138.445, 2128.597 138.840, 2126.706 140.250 M 889 185.833 C 889 209.392, 889.186 228.854, 889.414 229.083 C 889.642 229.312, 903.029 229.263, 919.164 228.974 C 948.110 228.455, 948.573 228.414, 954 225.862 C 962.590 221.822, 968.466 215.954, 972.667 207.220 C 975.893 200.513, 976.377 198.495, 976.783 190.055 C 977.972 165.366, 967.967 150.058, 947 144.485 C 942.847 143.382, 935.071 143.021, 915.250 143.012 L 889 143 889 185.833 M 1855 173.607 C 1831.723 177.774, 1814.926 189.947, 1805.472 209.500 C 1798.728 223.446, 1797.586 228.917, 1797.540 247.500 C 1797.501 263.231, 1797.910 266.240, 1801.690 277.979 C 1805.993 291.345, 1817.576 305.953, 1829.719 313.329 C 1842.910 321.342, 1862.759 325.074, 1879 322.594 C 1892.091 320.596, 1895.214 319.692, 1903.923 315.388 C 1915.393 309.720, 1926.343 298.355, 1932.305 285.933 C 1938.449 273.128, 1940.238 264.642, 1940.298 248 C 1940.357 231.564, 1938.626 223.326, 1932.356 210.208 C 1922.649 189.899, 1905.320 177.349, 1881.761 173.564 C 1870.453 171.748, 1865.337 171.756, 1855 173.607 M 1958.017 225.250 C 1958.037 280.761, 1958.325 284.080, 1964.170 295.982 C 1969.767 307.379, 1978.217 314.913, 1990.649 319.592 C 1995.893 321.566, 1998.889 321.998, 2007.273 321.989 C 2026.385 321.969, 2039.986 314.948, 2048.353 300.782 C 2050.211 297.637, 2051.953 295.287, 2052.225 295.558 C 2052.496 295.830, 2052.498 300.274, 2052.228 305.434 C 2051.958 310.594, 2052.030 315.983, 2052.388 317.408 L 2053.038 320 2072.519 320 L 2092 320 2092 247.500 L 2092 175 2071.547 175 L 2051.093 175 2050.797 221.250 C 2050.501 267.398, 2050.495 267.510, 2048.166 272.239 C 2045.311 278.036, 2038.470 284.243, 2033.193 285.824 C 2031.034 286.471, 2026.375 287, 2022.840 287 C 2017.367 287, 2015.605 286.517, 2010.984 283.750 C 2006.606 281.128, 2004.972 279.355, 2002.529 274.573 L 1999.500 268.646 1999.196 221.823 L 1998.891 175 1978.446 175 L 1958 175 1958.017 225.250 M 1863.500 204.614 C 1854.226 206.925, 1848.956 211.287, 1844.467 220.370 C 1840.028 229.352, 1838.567 238.712, 1839.356 253.119 C 1840.051 265.798, 1842.924 274.761, 1848.459 281.516 C 1854.174 288.489, 1858.791 290.498, 1869 290.452 C 1878.740 290.409, 1881.918 289.147, 1887.953 282.929 C 1899.469 271.063, 1902.259 239.099, 1893.407 220.445 C 1891.034 215.444, 1885.192 209.138, 1880.905 206.951 C 1877.035 204.977, 1867.293 203.669, 1863.500 204.614" stroke="none" fill="#fcfcfc" fill-rule="evenodd"/></svg>