<svg id="visual" viewBox="0 0 900 70" width="500" height="450" xmlns="http://www.w3.org/2000/svg" version="1.1"><rect x="0" y="0" width="900" height="600" fill="#875DC1"></rect><path d="M0 91L100 128L200 129L300 148L400 134L500 126L600 117L700 103L800 125L900 122L900 0L800 0L700 0L600 0L500 0L400 0L300 0L200 0L100 0L0 0Z" fill="#875dc1"></path><path d="M0 77L100 114L200 88L300 83L400 102L500 115L600 96L700 103L800 74L900 73L900 0L800 0L700 0L600 0L500 0L400 0L300 0L200 0L100 0L0 0Z" fill="#62478f"></path><path d="M0 86L100 94L200 63L300 78L400 81L500 91L600 82L700 70L800 87L900 94L900 0L800 0L700 0L600 0L500 0L400 0L300 0L200 0L100 0L0 0Z" fill="#41315f"></path><path d="M0 38L100 60L200 39L300 57L400 65L500 39L600 57L700 51L800 37L900 57L900 0L800 0L700 0L600 0L500 0L400 0L300 0L200 0L100 0L0 0Z" fill="#231c32"></path><path d="M0 32L100 41L200 40L300 17L400 30L500 37L600 28L700 23L800 21L900 31L900 0L800 0L700 0L600 0L500 0L400 0L300 0L200 0L100 0L0 0Z" fill="#020104"></path></svg>