<svg id="visual" viewBox="0 0 900 120" width="900" height="450" xmlns="http://www.w3.org/2000/svg" xmlns:xlink="http://www.w3.org/1999/xlink" version="1.1"><rect x="0" y="0" width="900" height="450" fill="#180933"></rect><path d="M0 124L10 122.8C20 121.7 40 119.3 60 120.2C80 121 100 125 120 121.5C140 118 160 107 180 102.2C200 97.3 220 98.7 240 100.3C260 102 280 104 300 109.8C320 115.7 340 125.3 360 127.8C380 130.3 400 125.7 420 122.7C440 119.7 460 118.3 480 115.7C500 113 520 109 540 107.3C560 105.7 580 106.3 600 106.2C620 106 640 105 660 111C680 117 700 130 720 134.5C740 139 760 135 780 128C800 121 820 111 840 112C860 113 880 125 890 131L900 137L900 0L890 0C880 0 860 0 840 0C820 0 800 0 780 0C760 0 740 0 720 0C700 0 680 0 660 0C640 0 620 0 600 0C580 0 560 0 540 0C520 0 500 0 480 0C460 0 440 0 420 0C400 0 380 0 360 0C340 0 320 0 300 0C280 0 260 0 240 0C220 0 200 0 180 0C160 0 140 0 120 0C100 0 80 0 60 0C40 0 20 0 10 0L0 0Z" fill="#180933"></path><path d="M0 110L10 110.5C20 111 40 112 60 106.5C80 101 100 89 120 87.5C140 86 160 95 180 97.8C200 100.7 220 97.3 240 98.8C260 100.3 280 106.7 300 104.8C320 103 340 93 360 88.8C380 84.7 400 86.3 420 88.7C440 91 460 94 480 96.8C500 99.7 520 102.3 540 99.3C560 96.3 580 87.7 600 84.3C620 81 640 83 660 84C680 85 700 85 720 89.2C740 93.3 760 101.7 780 104.8C800 108 820 106 840 103.7C860 101.3 880 98.7 890 97.3L900 96L900 0L890 0C880 0 860 0 840 0C820 0 800 0 780 0C760 0 740 0 720 0C700 0 680 0 660 0C640 0 620 0 600 0C580 0 560 0 540 0C520 0 500 0 480 0C460 0 440 0 420 0C400 0 380 0 360 0C340 0 320 0 300 0C280 0 260 0 240 0C220 0 200 0 180 0C160 0 140 0 120 0C100 0 80 0 60 0C40 0 20 0 10 0L0 0Z" fill="#160729"></path><path d="M0 75L10 75.7C20 76.3 40 77.7 60 76.8C80 76 100 73 120 70C140 67 160 64 180 62.8C200 61.7 220 62.3 240 64.5C260 66.7 280 70.3 300 74.5C320 78.7 340 83.3 360 85.2C380 87 400 86 420 83.3C440 80.7 460 76.3 480 74.5C500 72.7 520 73.3 540 72.5C560 71.7 580 69.3 600 66.8C620 64.3 640 61.7 660 60.5C680 59.3 700 59.7 720 63.2C740 66.7 760 73.3 780 74C800 74.7 820 69.3 840 67C860 64.7 880 65.3 890 65.7L900 66L900 0L890 0C880 0 860 0 840 0C820 0 800 0 780 0C760 0 740 0 720 0C700 0 680 0 660 0C640 0 620 0 600 0C580 0 560 0 540 0C520 0 500 0 480 0C460 0 440 0 420 0C400 0 380 0 360 0C340 0 320 0 300 0C280 0 260 0 240 0C220 0 200 0 180 0C160 0 140 0 120 0C100 0 80 0 60 0C40 0 20 0 10 0L0 0Z" fill="#12051f"></path><path d="M0 49L10 49.2C20 49.3 40 49.7 60 50.7C80 51.7 100 53.3 120 55C140 56.7 160 58.3 180 59.2C200 60 220 60 240 60.8C260 61.7 280 63.3 300 63.7C320 64 340 63 360 60.2C380 57.3 400 52.7 420 51C440 49.3 460 50.7 480 49.8C500 49 520 46 540 48.3C560 50.7 580 58.3 600 59C620 59.7 640 53.3 660 50.3C680 47.3 700 47.7 720 49.3C740 51 760 54 780 56.2C800 58.3 820 59.7 840 59.2C860 58.7 880 56.3 890 55.2L900 54L900 0L890 0C880 0 860 0 840 0C820 0 800 0 780 0C760 0 740 0 720 0C700 0 680 0 660 0C640 0 620 0 600 0C580 0 560 0 540 0C520 0 500 0 480 0C460 0 440 0 420 0C400 0 380 0 360 0C340 0 320 0 300 0C280 0 260 0 240 0C220 0 200 0 180 0C160 0 140 0 120 0C100 0 80 0 60 0C40 0 20 0 10 0L0 0Z" fill="#0b0315"></path><path d="M0 32L10 33.2C20 34.3 40 36.7 60 36.8C80 37 100 35 120 34.8C140 34.7 160 36.3 180 36.8C200 37.3 220 36.7 240 34.2C260 31.7 280 27.3 300 27.7C320 28 340 33 360 32C380 31 400 24 420 23.5C440 23 460 29 480 32.3C500 35.7 520 36.3 540 36C560 35.7 580 34.3 600 31.3C620 28.3 640 23.7 660 21.8C680 20 700 21 720 22.5C740 24 760 26 780 28.5C800 31 820 34 840 32.8C860 31.7 880 26.3 890 23.7L900 21L900 0L890 0C880 0 860 0 840 0C820 0 800 0 780 0C760 0 740 0 720 0C700 0 680 0 660 0C640 0 620 0 600 0C580 0 560 0 540 0C520 0 500 0 480 0C460 0 440 0 420 0C400 0 380 0 360 0C340 0 320 0 300 0C280 0 260 0 240 0C220 0 200 0 180 0C160 0 140 0 120 0C100 0 80 0 60 0C40 0 20 0 10 0L0 0Z" fill="#020104"></path></svg>