<svg id="visual" viewBox="0 0 900 70" width="500" height="450" xmlns="http://www.w3.org/2000/svg" xmlns:xlink="http://www.w3.org/1999/xlink" version="1.1"><path d="M0 194L129 182L257 204L386 202L514 188L643 248L771 228L900 153L900 0L771 0L643 0L514 0L386 0L257 0L129 0L0 0Z" fill="#020104"></path><path d="M0 181L129 183L257 189L386 182L514 165L643 156L771 167L900 154L900 0L771 0L643 0L514 0L386 0L257 0L129 0L0 0Z" fill="#231c32"></path><path d="M0 113L129 155L257 136L386 96L514 111L643 151L771 156L900 102L900 0L771 0L643 0L514 0L386 0L257 0L129 0L0 0Z" fill="#41315f"></path><path d="M0 111L129 62L257 105L386 83L514 63L643 110L771 104L900 84L900 0L771 0L643 0L514 0L386 0L257 0L129 0L0 0Z" fill="#62478f"></path><path d="M0 54L129 26L257 72L386 42L514 47L643 59L771 24L900 43L900 0L771 0L643 0L514 0L386 0L257 0L129 0L0 0Z" fill="#875dc1"></path></svg>